<svg width="56" height="55" viewBox="0 0 56 55" fill="none" xmlns="http://www.w3.org/2000/svg">
<circle cx="28.0782" cy="27.4612" r="27.2796" fill="url(#paint0_radial)"/>
<path d="M15.0812 27.097H7.34863V19.9678C7.34863 17.8326 9.07968 16.1015 11.2149 16.1015C13.3501 16.1015 15.0812 17.8326 15.0812 19.9678V27.097Z" fill="#E63950"/>
<path d="M8.29219 24.8633C8.11913 24.8633 7.97754 24.7233 7.97754 24.5486C7.97754 24.3756 8.11913 24.234 8.29219 24.234C8.4654 24.234 8.60684 24.3756 8.60684 24.5486C8.60684 24.7233 8.46525 24.8633 8.29219 24.8633ZM8.29219 23.6047C8.11913 23.6047 7.97754 23.4647 7.97754 23.29V19.9673C7.97754 18.1833 9.42965 16.7311 11.2153 16.7311C11.8053 16.7311 12.3811 16.8916 12.8831 17.1937C12.9555 17.2377 13.0057 17.307 13.0261 17.3888C13.045 17.469 13.0324 17.554 12.9901 17.6263C12.9018 17.7711 12.7022 17.8198 12.5574 17.7333C12.1531 17.4894 11.6888 17.3604 11.2154 17.3604C9.77907 17.362 8.61014 18.5325 8.607 19.9673V23.2885V23.29C8.60684 23.4647 8.46682 23.6047 8.29219 23.6047Z" fill="#E8566F"/>
<path d="M13.0471 16.5625C13.3412 17.1078 13.5079 17.7317 13.5079 18.3946V25.5237H7.34863V27.097H15.0812V19.9678C15.0813 18.4954 14.2582 17.2154 13.0471 16.5625Z" fill="#D10028"/>
<path d="M15.2943 28.7352H7.13569C6.68338 28.7352 6.31665 28.3685 6.31665 27.9161C6.31665 27.4638 6.68338 27.0971 7.13569 27.0971H15.2943C15.7466 27.0971 16.1133 27.4638 16.1133 27.9161C16.1133 28.3685 15.7466 28.7352 15.2943 28.7352Z" fill="#E63950"/>
<path d="M15.3261 27.0976C15.3266 27.1081 15.3268 27.1188 15.3268 27.1294C15.3268 27.5817 14.96 27.9486 14.5077 27.9486H6.34916C6.33846 27.9486 6.32792 27.9483 6.31738 27.9479C6.33406 28.3855 6.69418 28.7352 7.13579 28.7352H15.2944C15.7467 28.7352 16.1134 28.3685 16.1134 27.916C16.1134 27.4744 15.7638 27.1144 15.3261 27.0976Z" fill="#D10028"/>
<path d="M8.81267 38.7199C8.53704 38.7199 8.31348 38.4963 8.31348 38.2207V28.7358H9.31186V38.2207C9.31186 38.4963 9.0883 38.7199 8.81267 38.7199Z" fill="#E6E7E8"/>
<path d="M8.99729 28.7351V37.9053C8.99729 38.1809 8.77373 38.4045 8.4981 38.4045C8.44256 38.4045 8.38923 38.3953 8.33936 38.3787C8.40575 38.5766 8.59249 38.7191 8.81275 38.7191C9.08838 38.7191 9.31194 38.4956 9.31194 38.2199V28.7351H8.99729Z" fill="#D1D3D4"/>
<path d="M13.6174 38.7191C13.3417 38.7191 13.1182 38.4956 13.1182 38.2199V28.7351H14.1166V38.2199C14.1166 38.4956 13.893 38.7191 13.6174 38.7191Z" fill="#E6E7E8"/>
<path d="M13.802 28.7351V37.9053C13.802 38.1809 13.5784 38.4045 13.3028 38.4045C13.2472 38.4045 13.1939 38.3953 13.144 38.3787C13.2104 38.5766 13.3972 38.7191 13.6174 38.7191C13.8931 38.7191 14.1166 38.4956 14.1166 38.2199V28.7351H13.802Z" fill="#D1D3D4"/>
<path d="M18.4567 27.7397L26.5823 27.7397L26.5823 35.2313C26.5823 37.475 24.7632 39.2941 22.5195 39.2941C20.2757 39.2941 18.4567 37.475 18.4567 35.2313L18.4567 27.7397Z" fill="#5FE7A9"/>
<path d="M25.5907 30.0869C25.7726 30.0869 25.9214 30.2341 25.9214 30.4176C25.9214 30.5994 25.7726 30.7482 25.5907 30.7482C25.4087 30.7482 25.2601 30.5994 25.2601 30.4176C25.2601 30.2341 25.4089 30.0869 25.5907 30.0869ZM25.5907 31.4095C25.7726 31.4095 25.9214 31.5566 25.9214 31.7401L25.9214 35.2318C25.9214 37.1065 24.3955 38.6324 22.519 38.6324C21.8991 38.6324 21.294 38.4638 20.7665 38.1464C20.6904 38.1001 20.6377 38.0274 20.6162 37.9414C20.5963 37.8571 20.6096 37.7678 20.654 37.6918C20.7468 37.5397 20.9566 37.4884 21.1087 37.5793C21.5336 37.8356 22.0214 37.9712 22.5189 37.9712C24.0283 37.9695 25.2566 36.7395 25.2599 35.2318L25.2599 31.7418L25.2599 31.7401C25.2601 31.5566 25.4072 31.4095 25.5907 31.4095Z" fill="#94ECC4"/>
<path d="M20.5941 38.8096C20.2851 38.2366 20.1099 37.581 20.1099 36.8844L20.1099 29.3928L26.5823 29.3928L26.5823 27.7396L18.4567 27.7396L18.4567 35.2312C18.4565 36.7785 19.3215 38.1235 20.5941 38.8096Z" fill="#4FC08D"/>
<path d="M18.2328 26.0182L26.8061 26.0182C27.2814 26.0182 27.6667 26.4035 27.6667 26.8788C27.6667 27.3541 27.2814 27.7395 26.8061 27.7395L18.2328 27.7395C17.7575 27.7395 17.3721 27.3541 17.3721 26.8788C17.3721 26.4035 17.7575 26.0182 18.2328 26.0182Z" fill="#5FE7A9"/>
<path d="M18.1993 27.739C18.1988 27.7279 18.1986 27.7167 18.1986 27.7056C18.1986 27.2303 18.584 26.8448 19.0593 26.8448L27.6326 26.8448C27.6439 26.8448 27.6549 26.8451 27.666 26.8454C27.6485 26.3857 27.2701 26.0182 26.806 26.0182L18.2327 26.0182C17.7574 26.0182 17.372 26.4035 17.372 26.879C17.372 27.3431 17.7394 27.7213 18.1993 27.739Z" fill="#4FC08D"/>
<path d="M25.0438 15.526C25.3334 15.526 25.5684 15.7609 25.5684 16.0505L25.5684 26.0175L24.5192 26.0175L24.5192 16.0505C24.5192 15.7609 24.7541 15.526 25.0438 15.526Z" fill="#E6E7E8"/>
<path d="M24.8499 26.0182L24.8499 16.3819C24.8499 16.0922 25.0848 15.8573 25.3744 15.8573C25.4328 15.8573 25.4889 15.8669 25.5413 15.8844C25.4715 15.6764 25.2753 15.5266 25.0438 15.5266C24.7542 15.5266 24.5192 15.7616 24.5192 16.0512L24.5192 26.0182L24.8499 26.0182Z" fill="#D1D3D4"/>
<path d="M19.995 15.5266C20.2846 15.5266 20.5195 15.7616 20.5195 16.0512L20.5195 26.0182L19.4704 26.0182L19.4704 16.0512C19.4704 15.7616 19.7053 15.5266 19.995 15.5266Z" fill="#E6E7E8"/>
<path d="M19.8008 26.0182L19.8008 16.3819C19.8008 16.0922 20.0357 15.8573 20.3254 15.8573C20.3837 15.8573 20.4398 15.8669 20.4922 15.8844C20.4224 15.6764 20.2262 15.5266 19.9947 15.5266C19.7051 15.5266 19.4702 15.7616 19.4702 16.0512L19.4702 26.0182L19.8008 26.0182Z" fill="#D1D3D4"/>
<path d="M37.6853 27.0971H29.9568V19.9717C29.9568 17.8376 31.6869 16.1074 33.821 16.1074C35.9551 16.1074 37.6853 17.8376 37.6853 19.9717V27.0971Z" fill="#6ED8F4"/>
<path d="M30.8999 24.8646C30.727 24.8646 30.5854 24.7246 30.5854 24.5501C30.5854 24.3771 30.727 24.2356 30.8999 24.2356C31.0731 24.2356 31.2144 24.3771 31.2144 24.5501C31.2144 24.7246 31.0729 24.8646 30.8999 24.8646ZM30.8999 23.6066C30.727 23.6066 30.5854 23.4667 30.5854 23.2921V19.9712C30.5854 18.188 32.0368 16.7367 33.8215 16.7367C34.4112 16.7367 34.9867 16.8971 35.4884 17.199C35.5608 17.243 35.6109 17.3122 35.6314 17.394C35.6502 17.4742 35.6377 17.5591 35.5954 17.6314C35.5071 17.7761 35.3076 17.8248 35.1629 17.7383C34.7588 17.4946 34.2948 17.3657 33.8217 17.3657C32.386 17.3672 31.2177 18.5371 31.2146 19.9712V23.2906V23.2921C31.2144 23.4667 31.0745 23.6066 30.8999 23.6066Z" fill="#7AE3FF"/>
<path d="M35.6523 16.5682C35.9462 17.1132 36.1128 17.7368 36.1128 18.3993V25.5247H29.9568V27.0971H37.6853V19.9717C37.6854 18.5001 36.8627 17.2207 35.6523 16.5682Z" fill="#05B5E4"/>
<path d="M37.8982 28.7344H29.7439C29.2918 28.7344 28.9253 28.3679 28.9253 27.9158C28.9253 27.4638 29.2918 27.0972 29.7439 27.0972H37.8982C38.3503 27.0972 38.7168 27.4638 38.7168 27.9158C38.7168 28.3679 38.3503 28.7344 37.8982 28.7344Z" fill="#6ED8F4"/>
<path d="M37.93 27.0977C37.9305 27.1083 37.9307 27.1189 37.9307 27.1295C37.9307 27.5816 37.5641 27.9482 37.1121 27.9482H28.9578C28.9471 27.9482 28.9366 27.9479 28.926 27.9476C28.9427 28.3849 29.3026 28.7345 29.744 28.7345H37.8983C38.3504 28.7345 38.7169 28.3679 38.7169 27.9157C38.7169 27.4743 38.3675 27.1145 37.93 27.0977Z" fill="#05B5E4"/>
<path d="M31.4201 38.7139C31.1446 38.7139 30.9211 38.4904 30.9211 38.2149V28.7351H31.919V38.2149C31.919 38.4904 31.6956 38.7139 31.4201 38.7139Z" fill="#E6E7E8"/>
<path d="M31.6044 28.7344V37.8998C31.6044 38.1753 31.3809 38.3987 31.1054 38.3987C31.0499 38.3987 30.9966 38.3896 30.9468 38.3729C31.0131 38.5707 31.1998 38.7132 31.4199 38.7132C31.6954 38.7132 31.9189 38.4898 31.9189 38.2143V28.7344H31.6044Z" fill="#D1D3D4"/>
<path d="M36.2221 38.7132C35.9466 38.7132 35.7231 38.4898 35.7231 38.2143V28.7344H36.721V38.2143C36.721 38.4898 36.4976 38.7132 36.2221 38.7132Z" fill="#E6E7E8"/>
<path d="M36.4066 28.7344V37.8998C36.4066 38.1753 36.1832 38.3987 35.9077 38.3987C35.8522 38.3987 35.7989 38.3896 35.749 38.3729C35.8154 38.5707 36.002 38.7132 36.2222 38.7132C36.4977 38.7132 36.7211 38.4898 36.7211 38.2143V28.7344H36.4066Z" fill="#D1D3D4"/>
<path d="M41.0033 27.7225L48.7051 27.7225L48.7051 34.8233C48.7051 36.95 46.9809 38.6742 44.8542 38.6742C42.7275 38.6742 41.0033 36.95 41.0033 34.8233L41.0033 27.7225Z" fill="#FF7F56"/>
<path d="M47.7652 29.9473C47.9376 29.9473 48.0786 30.0868 48.0786 30.2607C48.0786 30.4331 47.9376 30.5741 47.7652 30.5741C47.5927 30.5741 47.4518 30.4331 47.4518 30.2607C47.4518 30.0868 47.5928 29.9473 47.7652 29.9473ZM47.7652 31.2009C47.9376 31.2009 48.0786 31.3404 48.0786 31.5143L48.0786 34.8238C48.0786 36.6008 46.6323 38.0471 44.8537 38.0471C44.2661 38.0471 43.6926 37.8873 43.1926 37.5864C43.1205 37.5425 43.0705 37.4736 43.0501 37.3921C43.0313 37.3122 43.0439 37.2276 43.086 37.1555C43.1739 37.0113 43.3728 36.9628 43.5169 37.0489C43.9197 37.2918 44.3821 37.4203 44.8536 37.4203C46.2843 37.4188 47.4485 36.2529 47.4517 34.8238L47.4517 31.5159L47.4517 31.5143C47.4518 31.3404 47.5913 31.2009 47.7652 31.2009Z" fill="#FF9E7E"/>
<path d="M43.0293 38.215C42.7364 37.6719 42.5703 37.0504 42.5703 36.3903L42.5703 29.2894L48.7051 29.2894L48.7051 27.7225L41.0033 27.7225L41.0033 34.8233C41.0032 36.2898 41.823 37.5647 43.0293 38.215Z" fill="#F36538"/>
<path d="M40.791 26.0908L48.9171 26.0908C49.3676 26.0908 49.7329 26.4561 49.7329 26.9066C49.7329 27.3571 49.3676 27.7224 48.9171 27.7224L40.791 27.7224C40.3405 27.7224 39.9753 27.3571 39.9753 26.9066C39.9753 26.4561 40.3405 26.0908 40.791 26.0908Z" fill="#FF7F56"/>
<path d="M40.7593 27.7219C40.7588 27.7114 40.7586 27.7007 40.7586 27.6902C40.7586 27.2397 41.1239 26.8743 41.5744 26.8743L49.7005 26.8743C49.7112 26.8743 49.7217 26.8746 49.7322 26.8749C49.7156 26.4391 49.3569 26.0908 48.917 26.0908L40.7909 26.0908C40.3404 26.0908 39.9751 26.456 39.9751 26.9067C39.9751 27.3466 40.3233 27.7051 40.7593 27.7219Z" fill="#F36538"/>
<path d="M47.2467 16.1459C47.5212 16.1459 47.7439 16.3685 47.7439 16.6431L47.7439 26.0901L46.7495 26.0901L46.7495 16.6431C46.7495 16.3685 46.9722 16.1459 47.2467 16.1459Z" fill="#E6E7E8"/>
<path d="M47.0629 26.0908L47.0629 16.9571C47.0629 16.6826 47.2856 16.4599 47.5602 16.4599C47.6155 16.4599 47.6686 16.469 47.7183 16.4856C47.6521 16.2885 47.4661 16.1465 47.2468 16.1465C46.9722 16.1465 46.7495 16.3692 46.7495 16.6437L46.7495 26.0908L47.0629 26.0908Z" fill="#D1D3D4"/>
<path d="M42.4613 16.1465C42.7358 16.1465 42.9585 16.3692 42.9585 16.6437L42.9585 26.0908L41.9641 26.0908L41.9641 16.6437C41.9641 16.3692 42.1868 16.1465 42.4613 16.1465Z" fill="#E6E7E8"/>
<path d="M42.2773 26.0908L42.2773 16.9571C42.2773 16.6826 42.5 16.4599 42.7745 16.4599C42.8298 16.4599 42.8829 16.469 42.9326 16.4856C42.8665 16.2885 42.6805 16.1465 42.4611 16.1465C42.1866 16.1465 41.9639 16.3692 41.9639 16.6437L41.9639 26.0908L42.2773 26.0908Z" fill="#D1D3D4"/>
<defs>
<radialGradient id="paint0_radial" cx="0" cy="0" r="1" gradientUnits="userSpaceOnUse" gradientTransform="translate(28.0782 27.4612) rotate(90) scale(27.2796)">
<stop stop-color="#6703A5"/>
<stop offset="1" stop-color="#1F7DD5"/>
</radialGradient>
</defs>
</svg>
